<svg height="512" viewBox="0 0 59 59" width="512" xmlns="http://www.w3.org/2000/svg"><g id="Page-1" fill="none" fill-rule="evenodd"><g id="029---Cake" fill-rule="nonzero" transform="translate(0 -1)"><path id="Shape" d="m54.89 42.93-.59 9.96-3.3 3.11-11 2h-23l-10-2-3.3-3.11-.34-5.82-.25-4.14 1.89-2.93h48z" fill="#f0c419"/><path id="Shape" d="m58 32.94c-.02.94-.23 7.11-3 9.88-.6606958.8075822-1.6984233 1.2067082-2.73 1.05-1-.25-1.53-1.17-2.23-1.83-.8789102-.7523227-2.0615758-1.0452085-3.19-.79-2.18.42-3.5 2.25-5.05 3.64-.598838.6118563-1.4515862.9047567-2.3.79-.872045-.2713039-1.662597-.7559467-2.3-1.41-.9727279-1.0100608-2.5113206-1.2209969-3.72-.51-1.53.91-2.56 2.06-4.48 2.06s-2.95-1.15-4.48-2.06c-1.2086794-.7109969-2.7472721-.5000608-3.72.51-.637403.6540533-1.427955 1.1386961-2.3 1.41-.8484138.1147567-1.701162-.1781437-2.3-.79-1.55-1.39-2.87-3.22-5.05-3.64-1.1284242-.2552085-2.31108976.0376773-3.19.79-.7.66-1.23 1.58-2.23 1.83-1.03157673.1567082-2.06930421-.2424178-2.73-1.05-2.77-2.77-2.98-8.97-3-9.89.05 3.35 57.92 3.36 58 .01z" fill="#ff5364"/><path id="Shape" d="m58 32.89v.05c-.08 3.35-13.03 6.06-29 6.06-15.99 0-28.95-2.72-29-6.07v-.03c.02-2.85 9.37-5.25 22-5.9h14c12.61.65 21.96 3.05 22 5.89z" fill="#df4d60"/><path id="Shape" d="m29 16c-3.87 0-7 .8-7 1.79v13.42c0 .99 3.13 1.79 7 1.79s7-.8 7-1.79v-13.42c0-.99-3.13-1.79-7-1.79z" fill="#894b9d"/><path id="Shape" d="m36 17.79v.21c0 1.1-3.13 2-7 2s-7-.9-7-2v-.21c0-.99 3.13-1.79 7-1.79s7 .8 7 1.79z" fill="#3d324c"/><path id="Shape" d="m36 21v4c-4.92 4.2-10.94 4.49-14 4.3v-4.02c3.06.19 9.06-.1 13.98-4.28z" fill="#f0c419"/><path id="Shape" d="m.467 54.191c.09633651-.592256.45669777-1.108597.97938151-1.4032996.52268375-.2947026 1.15099818-.3358025 1.70761849-.1117004.17466667.072.35666667.1433333.546.214 4.97 1.85 14.44 3.11 25.3 3.11s20.33-1.26 25.3-3.11c.1893333-.0706667.3713333-.142.546-.214.5566203-.2241021 1.1849347-.1830022 1.7076185.1117004.5226837.2947026.883045.8110436.9793815 1.4032996.1547604.8931093-.3163874 1.777335-1.144 2.147-.7644414.332893-1.5450874.6272623-2.339.882-7.14 2.3-17.62 2.78-25.05 2.78s-17.91-.48-25.05-2.78c-.79391259-.2547377-1.57455856-.549107-2.339-.882-.82761265-.369665-1.29876041-1.2538907-1.144-2.147z" fill="#5d4c72"/><g fill="#fb7b76"><path id="Shape" d="m11 35c-.2651948-.0000566-.5195073-.1054506-.707-.293l-2-2c-.37897221-.3923789-.37355237-1.0160848.01218142-1.4018186.3857338-.3857338 1.00943969-.3911536 1.40181858-.0121814l2 2c.2859079.2859943.3714219.7160366.216678 1.0896546-.1547439.3736179-.5192821.6172591-.923678.6173454z"/><path id="Shape" d="m18 36c-.2651948-.0000566-.5195073-.1054506-.707-.293l-4-4c-.3789722-.3923789-.3735524-1.0160848.0121814-1.4018186s1.0094397-.3911536 1.4018186-.0121814l4 4c.2859079.2859943.3714219.7160366.216678 1.0896546-.1547439.3736179-.5192821.6172591-.923678.6173454z"/><path id="Shape" d="m47 35c-.4043959-.0000863-.7689341-.2437275-.923678-.6173454-.1547439-.373618-.0692299-.8036603.216678-1.0896546l2-2c.3923789-.3789722 1.0160848-.3735524 1.4018186.0121814s.3911536 1.0094397.0121814 1.4018186l-2 2c-.1874927.1875494-.4418052.2929434-.707.293z"/><path id="Shape" d="m40 36c-.4043959-.0000863-.7689341-.2437275-.923678-.6173454-.1547439-.373618-.0692299-.8036603.216678-1.0896546l4-4c.3923789-.3789722 1.0160848-.3735524 1.4018186.0121814s.3911536 1.0094397.0121814 1.4018186l-4 4c-.1874927.1875494-.4418052.2929434-.707.293z"/></g><circle id="Oval" cx="11" cy="48" fill="#e57e25" r="2"/><circle id="Oval" cx="23" cy="50" fill="#e57e25" r="2"/><circle id="Oval" cx="17" cy="51" fill="#e64c3c" r="1"/><circle id="Oval" cx="47" cy="48" fill="#e57e25" r="2"/><circle id="Oval" cx="35" cy="50" fill="#e57e25" r="2"/><circle id="Oval" cx="41" cy="51" fill="#e64c3c" r="1"/><circle id="Oval" cx="29" cy="50" fill="#e64c3c" r="1"/><path id="Shape" d="m9.185 14.689c-1.0809242-.0039704-2.13828987-.3161846-3.048-.9-2.20447714-1.5667343-3.39470568-4.19899249-3.115-6.889.11996304-1.62721697.90842708-3.13210449 2.178-4.157 1.60618348-1.30128471 3.66280001-1.91262377 5.719-1.7 3.5682.38222846 6.6739778 2.60915578 8.181 5.866 1.3 2.913 1.095 5.256-.576 6.6-.2782963.2292977-.6584881.2910097-.9950237.1615102-.3365356-.1294994-.5772889-.4301521-.6300904-.7868569-.0528016-.3567048.0905269-.7142115.3751141-.9356533 1.207-.967.517-3.06 0-4.221-1.2106055-2.6079525-3.7008322-4.38945164-6.56-4.693-1.51915483-.15887644-3.03954816.28897464-4.23 1.246-.84825549.68172077-1.37875921 1.68233685-1.467 2.767-.20227752 1.95396341.63221155 3.8713917 2.2 5.055.77684623.5031499 1.71705422.6892588 2.627.52.7470975-.1207242 1.3958297-.5814128 1.756-1.247.3525596-.7422627.3525596-1.60373729 0-2.346-.1785347-.49643465-.5746615-.88371769-1.075-1.051-.066-.009-.264-.034-.55.343-.21686021.28402615-.56877346.43078359-.92317742.38499021-.35440397-.04579338-.65745626-.27718048-.79500001-.60700001s-.08868279-.70796406.12817743-.9919902c.53070623-.77834247 1.44332344-1.20571256 2.381-1.115 1.2147588.23743131 2.2223621 1.08226211 2.668 2.237.5929147 1.2939914.5705029 2.786396-.061 4.062-.6340003 1.1995802-1.7825497 2.0426605-3.117 2.288-.35221898.0737107-.71115122.1105758-1.071.11z" fill="#894b9d"/><path id="Shape" d="m7.191 23.145c-.26946523-.0002406-.5386536-.0172736-.806-.051-2.55069316-.3993086-4.80792087-1.8726958-6.2-4.047-.27961025-.4620723-.1417982-1.0626753.31128623-1.3566264.45308443-.293951 1.05771063-.1750252 1.36571377.2686264 1.07738592 1.676162 2.81196716 2.8199616 4.777 3.15.83845431.1205807 1.69324139-.0397578 2.431-.456.4703365-.3141409.89357876-.6936111 1.257-1.127.4210094-.4839871.8942148-.9199665 1.411-1.3 1.3127487-.9053744 2.9859151-1.1097563 4.478-.547.5116918.2082114.7577114.7918082.5495 1.3035s-.7918082.7577114-1.3035.5495c-.8666602-.3109046-1.8301054-.1842825-2.587.34-.3965576.2997433-.7602529.6406447-1.085 1.017-.4930411.5783519-1.0693434 1.080173-1.71 1.489-.87708077.5094229-1.87473713.7742904-2.889.767z" fill="#3b97d3"/><circle id="Oval" cx="16" cy="23" fill="#ff5364" r="1"/><circle id="Oval" cx="1" cy="13" fill="#ff5364" r="1"/><circle id="Oval" cx="23" cy="3" fill="#ff5364" r="1"/><path id="Shape" d="m49.815 14.689c-.3595146.0005065-.7181081-.0363583-1.07-.11-1.3344503-.2453395-2.4829997-1.0884198-3.117-2.288-.6315029-1.275604-.6539147-2.7680086-.061-4.062.4456379-1.15473789 1.4532412-1.99956869 2.668-2.237.9379051-.09204091 1.8511678.33563141 2.381 1.115.2168602.28402614.2657212.66217067.1281774.9919902-.1375437.32981952-.440596.56120661-.795.607-.3544039.04579338-.7063172-.10096406-.9231774-.3849902-.287-.377-.489-.352-.55-.343-.5007193.16702257-.8972546.55434469-1.076 1.051-.3525596.74226271-.3525596 1.6037373 0 2.346.3593421.6645841 1.0063833 1.1251209 1.752 1.247.9102726.170463 1.8512372-.0157248 2.628-.52 1.5674677-1.183861 2.401874-3.10109911 2.2-5.055-.0864211-1.08561878-.6159014-2.08779762-1.464-2.771-1.1902978-.95731995-2.7108149-1.40520751-4.23-1.246-2.8591678.30354836-5.3493945 2.0850475-6.56 4.693-.517 1.161-1.207 3.254 0 4.221.2845872.2214418.4279157.5789485.3751141.9356533-.0528015.3567048-.2935548.6573575-.6300904.7868569-.3365356.1294995-.7167274.0677875-.9950237-.1615102-1.671-1.34-1.875-3.683-.576-6.6 1.5080993-3.25692045 4.6151261-5.48316744 8.184-5.864 2.0562207-.21284599 4.1129206.39851784 5.719 1.7 1.2689378 1.02591118 2.0563268 2.53154382 2.175 4.159.278428 2.68845113-.9112298 5.318764-3.114 6.885-.9097088.5851019-1.9673872.8986937-3.049.904z" fill="#f0c419"/><path id="Shape" d="m51.809 23.145c-1.0131543.007057-2.009699-.2574452-2.886-.766-.6406566-.408827-1.2169589-.9106481-1.71-1.489-.325017-.376395-.6886797-.7176012-1.085-1.018-.7571261-.5237867-1.7204804-.6500244-2.587-.339-.3310066.1346891-.7087251.0825571-.9908726-.1367584s-.4258591-.5724954-.377-.9265c.0488591-.3540047.282866-.6550525.6138726-.7897416 1.4919659-.5626958 3.164954-.3587094 4.478.546.5165266.3803473.989699.8162963 1.411 1.3.3634212.4333889.7866635.8128591 1.257 1.127.7372912.4165246 1.591861.5768883 2.43.456 1.9653994-.3297751 3.7003892-1.4736047 4.778-3.15.3080031-.4436516.9126293-.5625774 1.3657138-.2686264.4530844.2939511.5908964.8945541.3112862 1.3566264-1.3920791 2.1743042-3.6493068 3.6476914-6.2 4.047-.2683326.0339242-.5385314.0509577-.809.051z" fill="#4fba6f"/><circle id="Oval" cx="43" cy="23" fill="#ff5364" r="1"/><circle id="Oval" cx="58" cy="13" fill="#ff5364" r="1"/><path id="Shape" d="m29 18c-.5522847 0-1-.4477153-1-1v-4.46c0-.5522847.4477153-1 1-1s1 .4477153 1 1v4.46c0 .5522847-.4477153 1-1 1z" fill="#a5a5a4"/><path id="Shape" d="m33.608 10.233c-1.609 2.235-4.367 3-6.16 1.709s-1.941-4.149-.332-6.384c1.136-1.578 4.533-2.881 6.431-3.51.3122746-.09194113.649511-.03442948.9136623.15581421s.4255744.49187025.4373377.81718579c.002 1.998-.153 5.633-1.29 7.212z" fill="#f0c419"/></g></g></svg>